<svg width="200" height="24" fill="none" xmlns="http://www.w3.org/2000/svg" class="sc-docs-menu">
  <path filter="url(#logo-offset)" d="M55.36 6.03v12.84h-3.22V17.3c-.8 1.17-2.26 1.86-4.08 1.86-3.73 0-5.92-2.99-5.92-6.7 0-3.73 2.19-6.72 5.92-6.72 1.82 0 3.26.69 4.08 1.87V6.04h3.22zM48.8 8.81c-1.94 0-3.17 1.56-3.17 3.64 0 2.09 1.23 3.65 3.17 3.65s3.16-1.56 3.16-3.65c.01-2.08-1.21-3.64-3.16-3.64zM60.1 23.2h-3.49V6.05h3.22v1.57c.8-1.17 2.26-1.87 4.08-1.87 3.73 0 5.92 3 5.92 6.71 0 3.73-2.19 6.71-5.92 6.71a4.73 4.73 0 01-3.8-1.66v5.7zm3.07-7.1c1.94 0 3.17-1.56 3.17-3.65 0-2.08-1.23-3.64-3.17-3.64S60 10.37 60 12.45c0 2.09 1.22 3.65 3.17 3.65zM83.76 6.03v12.84h-3.22V17.3c-.8 1.17-2.26 1.86-4.08 1.86-3.73 0-5.92-2.99-5.92-6.7 0-3.73 2.18-6.72 5.92-6.72 1.82 0 3.26.69 4.08 1.87V6.04h3.22zM77.2 8.81c-1.94 0-3.17 1.56-3.17 3.64 0 2.09 1.23 3.65 3.17 3.65s3.16-1.56 3.16-3.65c.01-2.08-1.21-3.64-3.16-3.64zM37.92 14.16c-.41 1.11-1.45 1.73-2.73 1.73a3.4 3.4 0 01-3.39-3.44 3.4 3.4 0 013.4-3.43c1.27 0 2.27.54 2.72 1.73h3.5a6.12 6.12 0 00-6.23-5c-3.7 0-6.66 3-6.66 6.7 0 3.71 2.95 6.71 6.66 6.71 3.12 0 5.82-2.19 6.24-5h-3.5zM93.86 14.16c-.41 1.11-1.45 1.73-2.73 1.73a3.4 3.4 0 01-3.38-3.44 3.4 3.4 0 013.38-3.43c1.28 0 2.29.54 2.74 1.73h3.5a6.12 6.12 0 00-6.24-5c-3.7 0-6.66 3-6.66 6.7 0 3.71 2.96 6.71 6.66 6.71 3.12 0 5.82-2.19 6.24-5h-3.5zM97.78 2.9c0-1.22.89-2.1 2.11-2.1 1.23 0 2.12.88 2.12 2.1 0 1.23-.89 2.08-2.12 2.08a2.02 2.02 0 01-2.1-2.08zm.37 3.13h3.49v12.84h-3.5V6.03zM102.95 6.03V2.85h3.49v3.18h2.68v2.84h-2.68v10h-3.5V8.79" fill="#000" class="sc-docs-menu"></path>
  <path filter="url(#logo-offset)" fill-rule="evenodd" clip-rule="evenodd" d="M115.34 15.9a3.44 3.44 0 100-6.89 3.44 3.44 0 000 6.88zm0 3.26a6.71 6.71 0 100-13.42 6.71 6.71 0 000 13.42z" fill="#000" class="sc-docs-menu"></path>
  <path filter="url(#logo-offset)" d="M129.96 9.2s-.36-.07-.67-.07c-2.02 0-3.06 1-3.06 3.36v6.4h-3.46V6.02h3.19V7.7c.46-.76 1.43-1.78 3.59-1.78l.41.03V9.2z" fill="#000" class="sc-docs-menu"></path>
  <path filter="url(#logo-offset)" d="M3.74 5.07L.03 8.8l5.72 5.73L0 20.3 3.7 24l5.76-5.77 5.72 5.73 3.71-3.71L3.74 5.07z" fill="#53B9FF" class="sc-docs-menu"></path>
  <path filter="url(#logo-offset)" d="M13.17 14.52l-3.71 3.71 5.72 5.73 3.71-3.71-5.72-5.73z" fill="#119EFF" class="sc-docs-menu"></path><path d="M13.17 14.52l-3.71 3.71 1.43 1.43 2.28-5.14z" fill="#000" fill-opacity=".2" class="sc-docs-menu"></path>
  <path filter="url(#logo-offset)" fill-rule="evenodd" clip-rule="evenodd" d="M18.24 9.47L24 3.7 20.29 0l-5.76 5.75L8.8.03 5.1 3.74l15.15 15.18 3.7-3.72-5.7-5.73z" fill="#53B9FF" class="sc-docs-menu"></path>
  <path filter="url(#logo-offset)" d="M10.81 9.47l3.72-3.72L8.8.03 5.1 3.74l5.71 5.73z" fill="#119EFF" class="sc-docs-menu"></path>
  <path filter="url(#logo-offset)" d="M10.81 9.47l3.72-3.72-1.43-1.42-2.29 5.14z" fill="#000" fill-opacity=".2" class="sc-docs-menu"></path>
  
  <defs>
    <filter id="docs-offset" width="200" height="20">
      <feOffset in="SourceGraphic" dx="48" dy="-1" />
    </filter>
    <filter id="logo-offset" width="200" height="24">
      <feOffset in="SourceGraphic" dy="1" />
    </filter>
  </defs>
  <path xmlns="http://www.w3.org/2000/svg" filter="url(#docs-offset)" d="M93.53 21c4.16 0 6.47-2.48 6.47-6.04 0-3.55-2.31-6.03-6.47-6.03h-4.1V21h4.1Zm4.3-6.04c0 2.5-1.4 4.14-4.37 4.14h-1.97v-8.27h1.97c2.97 0 4.37 1.64 4.37 4.13Zm5.9 0c0-2.6 1.7-4.31 4.06-4.31 2.36 0 4.06 1.71 4.06 4.31 0 2.6-1.7 4.32-4.06 4.32-2.37 0-4.07-1.71-4.07-4.32Zm-2.18 0a6.06 6.06 0 0 0 6.24 6.3c3.67 0 6.24-2.7 6.24-6.3a6.06 6.06 0 0 0-6.24-6.29 6.06 6.06 0 0 0-6.24 6.3Zm14.01-.01c0 3.72 2.52 6.29 6.03 6.29 3 0 5.3-1.79 5.8-4.66h-2.2c-.4 1.7-1.78 2.69-3.6 2.69-2.4 0-3.85-1.72-3.85-4.32 0-2.6 1.44-4.3 3.86-4.3 1.81 0 3.2.98 3.6 2.68h2.2c-.5-2.87-2.81-4.65-5.8-4.65-3.52 0-6.04 2.56-6.04 6.27Zm17.79 4.44c-1.63 0-2.5-.87-2.59-2.16h-2.04c.07 1.97 1.31 4 4.53 4 2.88 0 4.79-1.42 4.79-3.61 0-4.83-6.8-2.77-6.8-5.43 0-1.07.87-1.66 2.28-1.66 1.54 0 2.34.95 2.36 2.14h2.02c-.05-2.26-1.54-4-4.38-4-2.69 0-4.32 1.65-4.32 3.57 0 4.83 6.75 2.52 6.75 5.46 0 1.09-.95 1.69-2.6 1.69Z" fill="#92A0B3"/>
</svg>
